<svg width="16" height="12" viewBox="0 0 16 12" fill="none" xmlns="http://www.w3.org/2000/svg">
<path fill-rule="evenodd" clip-rule="evenodd" d="M13.5133 1.96661C13.5133 1.96661 15.2887 5.198 15.2887 9.18463C15.2887 9.18463 14.2407 10.9799 11.5161 11.0665C11.5161 11.0665 11.0722 10.5341 10.7024 10.0637C12.3174 9.60558 12.9339 8.59035 12.9339 8.59035C12.4284 8.92463 11.9476 9.15987 11.5161 9.32082C8.8598 10.4412 5.90388 10.0578 3.82292 8.88749C3.81685 8.88343 3.79472 8.87066 3.76208 8.85182C3.65993 8.79289 3.45489 8.67458 3.31744 8.57797C3.31744 8.57797 3.90922 9.56844 5.47497 10.0389C5.10511 10.5094 4.64895 11.0665 4.64895 11.0665C1.92429 10.9799 0.888672 9.18463 0.888672 9.18463C0.888672 5.198 2.66401 1.96661 2.66401 1.96661C4.43936 0.629477 6.1284 0.666619 6.1284 0.666619L6.25169 0.815189C4.03251 1.45899 3.00922 2.43708 3.00922 2.43708C3.00922 2.43708 3.28045 2.28851 3.73662 2.07803C6.57744 0.82491 10.0176 0.825201 12.9462 2.43708C12.9462 2.43708 11.9722 1.50852 9.87634 0.864713L10.0489 0.666619C10.0489 0.666619 11.738 0.629477 13.5133 1.96661ZM10.2832 8.03321C10.9859 8.03321 11.5407 7.41417 11.5407 6.65894C11.5407 5.90371 10.9859 5.28467 10.2832 5.28467C9.58045 5.28467 9.02566 5.90371 9.02566 6.65894C9.02566 7.41417 9.59278 8.03321 10.2832 8.03321ZM4.52566 6.65894C4.52566 5.90371 5.08045 5.28467 5.78319 5.28467C6.48593 5.28467 7.05306 5.90371 7.04073 6.65894C7.04073 7.41417 6.48593 8.03321 5.78319 8.03321C5.09278 8.03321 4.52566 7.41417 4.52566 6.65894Z" fill="#95A0A7"/>
</svg>
